<svg width="28" height="28" viewBox="0 0 28 28" fill="none" xmlns="http://www.w3.org/2000/svg">
<path d="M9.17786 16.7845L15.9836 9.97872C16.8376 9.12472 18.0679 8.96985 18.9227 9.82385C19.7767 10.6778 19.6227 11.909 18.7679 12.763L11.6524 19.8785C10.4151 21.1157 7.93974 21.1157 6.39361 19.5687C4.84661 18.0217 4.84661 15.5472 6.08386 14.31L13.1994 7.19447C14.2693 6.14405 15.7107 5.5586 17.21 5.56549C18.7094 5.57238 20.1454 6.17105 21.2056 7.23126C22.2658 8.29147 22.8645 9.72745 22.8713 11.2268C22.8782 12.7261 22.2928 14.1676 21.2424 15.2375L17.2209 19.259" stroke="#7E84A3" stroke-width="1.5" stroke-linecap="round" stroke-linejoin="round"/>
</svg>
