<svg width="24" height="24" viewBox="0 0 24 24" fill="none" xmlns="http://www.w3.org/2000/svg">
<path fill-rule="evenodd" clip-rule="evenodd" d="M20.3076 21.7232C20.6981 22.1137 21.3313 22.1137 21.7218 21.7232C22.1124 21.3327 22.1124 20.6995 21.7219 20.309L13.4263 12.0133L21.7236 3.71589C22.1141 3.32536 22.1141 2.6922 21.7236 2.30168C21.333 1.91116 20.6999 1.91116 20.3093 2.30169L12.0121 10.5991L3.71493 2.30169C3.32441 1.91116 2.69124 1.91115 2.30071 2.30167C1.91019 2.6922 1.91018 3.32536 2.3007 3.71589L10.5979 12.0133L2.30241 20.309C1.91189 20.6995 1.91189 21.3327 2.30242 21.7232C2.69295 22.1137 3.32611 22.1137 3.71663 21.7232L12.0121 13.4275L20.3076 21.7232Z" fill="#7E84A3"/>
</svg>
