<svg width="26" height="26" viewBox="0 0 26 26" fill="none" xmlns="http://www.w3.org/2000/svg">
<path fill-rule="evenodd" clip-rule="evenodd" d="M22.4178 17.3007L22.4173 17.3008H25.069C25.7573 17.3008 26.1243 16.4893 25.6697 15.9725L23.8752 13.9319C25.2071 12.4732 25.998 10.6512 25.998 8.6748C25.998 3.88384 21.3501 0 15.6166 0C10.1179 0 5.61769 3.57225 5.25832 8.09096C7.19097 7.16789 12.0002 6.10405 16.9552 8.77249C18.6855 9.7255 22.2003 12.7653 22.4178 17.3007ZM10.3814 25.9999C16.1149 25.9999 20.7629 22.1161 20.7629 17.3251C20.7629 12.5342 16.1149 8.65033 10.3814 8.65033C4.64793 8.65033 0 12.5342 0 17.3251C0 19.3015 0.790987 21.1236 2.12287 22.5823L0.328306 24.6229C-0.126218 25.1397 0.240777 25.9512 0.929048 25.9512H9.27423C9.63802 25.9834 10.0074 25.9999 10.3814 25.9999ZM11.8646 17.3496C11.8646 18.1593 11.2006 18.8157 10.3815 18.8157C9.56243 18.8157 8.89844 18.1593 8.89844 17.3496C8.89844 16.5398 9.56243 15.8834 10.3815 15.8834C11.2006 15.8834 11.8646 16.5398 11.8646 17.3496ZM5.8815 18.8157C6.70057 18.8157 7.36456 18.1593 7.36456 17.3496C7.36456 16.5398 6.70057 15.8834 5.8815 15.8834C5.06243 15.8834 4.39844 16.5398 4.39844 17.3496C4.39844 18.1593 5.06243 18.8157 5.8815 18.8157ZM16.3626 17.3496C16.3626 18.1593 15.6986 18.8157 14.8795 18.8157C14.0605 18.8157 13.3965 18.1593 13.3965 17.3496C13.3965 16.5398 14.0605 15.8834 14.8795 15.8834C15.6986 15.8834 16.3626 16.5398 16.3626 17.3496Z" fill="#D9D9D9"/>
</svg>
