<svg width="45" height="45" viewBox="0 0 45 45" fill="none" xmlns="http://www.w3.org/2000/svg">
<rect x="0.5" y="0.5" width="44" height="44" rx="21.5" fill="white" stroke="#E6E9F4"/>
<path d="M22.8906 33.4375C19.8862 33.4375 17.0049 32.244 14.8804 30.1196C12.756 27.9951 11.5625 25.1138 11.5625 22.1094C11.5625 17.5195 14.1992 13.4043 18.2817 11.6274C18.4256 11.5647 18.5851 11.5468 18.7393 11.576C18.8935 11.6052 19.0353 11.6802 19.1463 11.7912C19.2573 11.9022 19.3323 12.044 19.3615 12.1982C19.3907 12.3524 19.3728 12.5119 19.3101 12.6558C18.8413 13.7319 18.5938 15.1104 18.5938 16.6406C18.5938 22.0254 22.9746 26.4062 28.3594 26.4062C29.8896 26.4062 31.2681 26.1587 32.3442 25.6899C32.4881 25.6272 32.6476 25.6093 32.8018 25.6385C32.956 25.6677 33.0978 25.7427 33.2088 25.8537C33.3198 25.9647 33.3948 26.1065 33.424 26.2607C33.4532 26.4149 33.4353 26.5744 33.3726 26.7183C31.5957 30.8008 27.4805 33.4375 22.8906 33.4375Z" fill="#7E84A3"/>
</svg>
