<svg width="26" height="26" viewBox="0 0 26 26" fill="none" xmlns="http://www.w3.org/2000/svg">
<path fill-rule="evenodd" clip-rule="evenodd" d="M13 26C20.1797 26 26 20.1797 26 13C26 5.8203 20.1797 0 13 0C5.8203 0 0 5.8203 0 13C0 20.1797 5.8203 26 13 26ZM11.8885 15.7467V15.8212H13.4046V15.7467C13.413 15.233 13.4677 14.8042 13.5688 14.4603C13.6699 14.1165 13.832 13.8203 14.0552 13.5717C14.2784 13.319 14.5753 13.0787 14.9459 12.8509C15.3164 12.6272 15.6323 12.3703 15.8934 12.0803C16.1587 11.7903 16.3608 11.461 16.4998 11.0923C16.643 10.7235 16.7146 10.3113 16.7146 9.85564C16.7146 9.20937 16.563 8.63352 16.2598 8.12811C15.9608 7.62269 15.5354 7.22498 14.9838 6.93499C14.4363 6.645 13.792 6.5 13.0508 6.5C12.3686 6.5 11.7474 6.63257 11.1874 6.89771C10.6315 7.16284 10.183 7.54605 9.84188 8.04732C9.50498 8.5486 9.31969 9.15137 9.286 9.85564H10.8778C10.9115 9.36679 11.0358 8.97116 11.2505 8.66874C11.4653 8.36632 11.7327 8.14468 12.0528 8.00382C12.3728 7.86297 12.7055 7.79254 13.0508 7.79254C13.4467 7.79254 13.8067 7.87333 14.131 8.03489C14.4553 8.19646 14.7142 8.42639 14.908 8.72467C15.1017 9.02294 15.1985 9.37508 15.1985 9.78107C15.1985 10.1083 15.1396 10.4066 15.0217 10.6759C14.908 10.9452 14.7521 11.1834 14.5542 11.3905C14.3563 11.5935 14.1331 11.7696 13.8846 11.9187C13.4719 12.1632 13.1182 12.4304 12.8234 12.7204C12.5286 13.0104 12.3012 13.3894 12.1412 13.8576C11.9812 14.3257 11.8969 14.9554 11.8885 15.7467ZM11.8948 19.1706C12.118 19.3902 12.3854 19.5 12.6971 19.5C12.9076 19.5 13.0971 19.4503 13.2656 19.3509C13.4383 19.2473 13.5751 19.1106 13.6762 18.9407C13.7815 18.7709 13.8341 18.5844 13.8341 18.3815C13.8341 18.0749 13.7225 17.8118 13.4993 17.5923C13.2761 17.3727 13.0087 17.2629 12.6971 17.2629C12.3854 17.2629 12.118 17.3727 11.8948 17.5923C11.6716 17.8118 11.5601 18.0749 11.5601 18.3815C11.5601 18.688 11.6716 18.9511 11.8948 19.1706Z" fill="#E4E4E4"/>
</svg>
