<svg width="44" height="44" viewBox="0 0 44 44" fill="none" xmlns="http://www.w3.org/2000/svg">
<g id="logo">
<g id="Rectangle 423" filter="url(#filter0_d_781_144)">
<rect x="7" y="7" width="28" height="28" rx="10" fill="white"/>
</g>
<g id="Union" filter="url(#filter1_i_781_144)">
<path fill-rule="evenodd" clip-rule="evenodd" d="M28.8008 13.8C28.8008 12.3744 27.7354 11.1976 26.3574 11.0225C26.322 11.018 26.2864 11.0141 26.2506 11.011C26.1683 11.0037 26.085 11 26.0009 11H25.9917C24.4495 11.0049 23.2008 12.2566 23.2008 13.8V16.6H26.0009C27.5385 16.6 28.7866 15.3606 28.8008 13.8264V13.8ZM14.0002 13.8C14.0002 12.2536 15.2538 11 16.8002 11C18.3466 11 19.6002 12.2536 19.6002 13.8V25.4L26 25.4C27.5464 25.4 28.8 26.6536 28.8 28.2C28.8 29.7464 27.5464 31 26 31H16.8089L16.8002 31L16.8 31C16.6672 31 16.5365 30.9908 16.4086 30.9729C15.0475 30.7825 14 29.6136 14 28.2L14.0002 28.1666V13.8Z" fill="#83A2FF"/>
</g>
</g>
<defs>
<filter id="filter0_d_781_144" x="0.2" y="0.2" width="43.6" height="43.6" filterUnits="userSpaceOnUse" color-interpolation-filters="sRGB">
<feFlood flood-opacity="0" result="BackgroundImageFix"/>
<feColorMatrix in="SourceAlpha" type="matrix" values="0 0 0 0 0 0 0 0 0 0 0 0 0 0 0 0 0 0 127 0" result="hardAlpha"/>
<feOffset dx="1" dy="1"/>
<feGaussianBlur stdDeviation="3.9"/>
<feComposite in2="hardAlpha" operator="out"/>
<feColorMatrix type="matrix" values="0 0 0 0 0.770833 0 0 0 0 0.828125 0 0 0 0 1 0 0 0 0.6 0"/>
<feBlend mode="normal" in2="BackgroundImageFix" result="effect1_dropShadow_781_144"/>
<feBlend mode="normal" in="SourceGraphic" in2="effect1_dropShadow_781_144" result="shape"/>
</filter>
<filter id="filter1_i_781_144" x="14" y="11" width="14.8008" height="21" filterUnits="userSpaceOnUse" color-interpolation-filters="sRGB">
<feFlood flood-opacity="0" result="BackgroundImageFix"/>
<feBlend mode="normal" in="SourceGraphic" in2="BackgroundImageFix" result="shape"/>
<feColorMatrix in="SourceAlpha" type="matrix" values="0 0 0 0 0 0 0 0 0 0 0 0 0 0 0 0 0 0 127 0" result="hardAlpha"/>
<feOffset dy="1"/>
<feGaussianBlur stdDeviation="1"/>
<feComposite in2="hardAlpha" operator="arithmetic" k2="-1" k3="1"/>
<feColorMatrix type="matrix" values="0 0 0 0 0 0 0 0 0 0 0 0 0 0 0 0 0 0 0.05 0"/>
<feBlend mode="normal" in2="shape" result="effect1_innerShadow_781_144"/>
</filter>
</defs>
</svg>
