<svg width="29" height="24" viewBox="0 0 29 24" fill="none" xmlns="http://www.w3.org/2000/svg">
<path fill-rule="evenodd" clip-rule="evenodd" d="M2 0.23877C0.895431 0.23877 0 1.1342 0 2.23877V8.93075C0 10.0353 0.895431 10.9308 2 10.9308H8.69199C9.79655 10.9308 10.692 10.0353 10.692 8.93075V2.23877C10.692 1.1342 9.79655 0.23877 8.69199 0.23877H2ZM2 13.0691C0.895431 13.0691 0 13.9645 0 15.0691V21.761C0 22.8656 0.895431 23.7611 2 23.7611H8.69199C9.79655 23.7611 10.692 22.8656 10.692 21.761V15.0691C10.692 13.9645 9.79655 13.0691 8.69199 13.0691H2ZM14.2195 16.2766C14.2195 15.8624 14.5553 15.5266 14.9695 15.5266H27.2653C27.6795 15.5266 28.0153 15.8624 28.0153 16.2766C28.0153 16.6909 27.6795 17.0266 27.2653 17.0266H14.9695C14.5553 17.0266 14.2195 16.6909 14.2195 16.2766ZM14.9695 2.69634C14.5553 2.69634 14.2195 3.03213 14.2195 3.44634C14.2195 3.86056 14.5553 4.19634 14.9695 4.19634H27.2653C27.6795 4.19634 28.0153 3.86056 28.0153 3.44634C28.0153 3.03213 27.6795 2.69634 27.2653 2.69634H14.9695ZM14.2195 20.5536C14.2195 20.1394 14.5553 19.8036 14.9695 19.8036H27.2653C27.6795 19.8036 28.0153 20.1394 28.0153 20.5536C28.0153 20.9678 27.6795 21.3036 27.2653 21.3036H14.9695C14.5553 21.3036 14.2195 20.9678 14.2195 20.5536ZM14.9695 6.97327C14.5553 6.97327 14.2195 7.30905 14.2195 7.72327C14.2195 8.13748 14.5553 8.47327 14.9695 8.47327H27.2653C27.6795 8.47327 28.0153 8.13748 28.0153 7.72327C28.0153 7.30905 27.6795 6.97327 27.2653 6.97327H14.9695Z" fill="#D9D9D9"/>
</svg>
