<svg width="26" height="26" viewBox="0 0 26 26" fill="none" xmlns="http://www.w3.org/2000/svg">
<path fill-rule="evenodd" clip-rule="evenodd" d="M12.9799 10.4363C15.8574 10.4363 18.1901 8.10003 18.1901 5.21814C18.1901 2.33624 15.8574 0 12.9799 0C10.1025 0 7.76982 2.33624 7.76982 5.21814C7.76982 8.10003 10.1025 10.4363 12.9799 10.4363ZM25.2878 22.0854C26.0614 24.1546 24.2081 26 21.999 26H12.999H3.99899C1.78986 26 -0.0634412 24.1546 0.710162 22.0854C0.795443 21.8573 0.888265 21.6313 0.988559 21.4078C1.64187 19.9519 2.59944 18.629 3.80661 17.5147C5.01377 16.4004 6.44688 15.5165 8.02411 14.9134C9.60134 14.3104 11.2918 14 12.999 14C14.7062 14 16.3966 14.3104 17.9739 14.9134C19.5511 15.5165 20.9842 16.4004 22.1914 17.5147C23.3985 18.629 24.3561 19.9519 25.0094 21.4078C25.1097 21.6313 25.2025 21.8573 25.2878 22.0854Z" fill="#D9D9D9"/>
</svg>
