<svg width="45" height="45" viewBox="0 0 45 45" fill="none" xmlns="http://www.w3.org/2000/svg">
<rect x="0.5" y="0.5" width="44" height="44" rx="21.5" fill="white" stroke="#E6E9F4"/>
<path d="M31.4885 27.6655C31.4074 27.5679 31.3279 27.4702 31.2497 27.376C30.1755 26.0767 29.5256 25.2925 29.5256 21.6143C29.5256 19.71 29.07 18.1475 28.1721 16.9756C27.51 16.1099 26.615 15.4531 25.4353 14.9678C25.4201 14.9593 25.4065 14.9483 25.3952 14.9351C24.9709 13.5142 23.8098 12.5625 22.5002 12.5625C21.1906 12.5625 20.03 13.5142 19.6057 14.9336C19.5944 14.9463 19.581 14.957 19.5661 14.9653C16.8132 16.0986 15.4753 18.2729 15.4753 21.6128C15.4753 25.2925 14.8264 26.0767 13.7512 27.3745C13.6731 27.4688 13.5935 27.5645 13.5124 27.6641C13.303 27.9166 13.1704 28.2238 13.1302 28.5493C13.0899 28.8748 13.1438 29.2051 13.2854 29.501C13.5866 30.1357 14.2287 30.5298 14.9616 30.5298H30.0442C30.7737 30.5298 31.4113 30.1362 31.7136 29.5044C31.8558 29.2084 31.9102 28.8779 31.8703 28.552C31.8304 28.2261 31.6979 27.9184 31.4885 27.6655ZM22.5002 34.4375C23.2058 34.4369 23.8981 34.2454 24.5036 33.8832C25.1092 33.5211 25.6054 33.0017 25.9397 32.3804C25.9554 32.3506 25.9632 32.3172 25.9622 32.2836C25.9613 32.2499 25.9517 32.217 25.9343 32.1882C25.9169 32.1594 25.8923 32.1355 25.863 32.1189C25.8336 32.1024 25.8005 32.0937 25.7668 32.0938H19.2346C19.2009 32.0936 19.1677 32.1022 19.1383 32.1188C19.1089 32.1353 19.0842 32.1591 19.0668 32.188C19.0493 32.2168 19.0396 32.2497 19.0387 32.2835C19.0377 32.3172 19.0455 32.3506 19.0613 32.3804C19.3955 33.0017 19.8916 33.5209 20.4971 33.8831C21.1025 34.2453 21.7947 34.4368 22.5002 34.4375Z" fill="#D7DCF2"/>
</svg>
