<svg width="3" height="17" viewBox="0 0 3 17" fill="none" xmlns="http://www.w3.org/2000/svg">
<path d="M2.86719 15.3604C2.86719 14.9978 2.72315 14.65 2.46675 14.3936C2.21035 14.1372 1.8626 13.9932 1.5 13.9932C1.1374 13.9932 0.789651 14.1372 0.533253 14.3936C0.276856 14.65 0.132813 14.9978 0.132813 15.3604C0.132813 15.723 0.276856 16.0707 0.533253 16.3271C0.78965 16.5835 1.1374 16.7275 1.5 16.7275C1.8626 16.7275 2.21035 16.5835 2.46675 16.3271C2.72315 16.0707 2.86719 15.723 2.86719 15.3604ZM2.86719 8.52441C2.86719 8.16181 2.72315 7.81406 2.46675 7.55767C2.21035 7.30127 1.8626 7.15723 1.5 7.15723C1.1374 7.15723 0.789651 7.30127 0.533254 7.55767C0.276856 7.81406 0.132813 8.16181 0.132813 8.52441C0.132813 8.88701 0.276856 9.23476 0.533254 9.49116C0.789651 9.74756 1.1374 9.8916 1.5 9.8916C1.8626 9.8916 2.21035 9.74756 2.46675 9.49116C2.72315 9.23476 2.86719 8.88701 2.86719 8.52441ZM2.86719 1.68848C2.86719 1.32588 2.72315 0.978127 2.46675 0.721729C2.21035 0.465332 1.8626 0.321289 1.5 0.321289C1.1374 0.321289 0.789652 0.465332 0.533254 0.721729C0.276857 0.978127 0.132814 1.32588 0.132814 1.68848C0.132814 2.05108 0.276857 2.39883 0.533254 2.65522C0.789651 2.91162 1.1374 3.05566 1.5 3.05566C1.8626 3.05566 2.21035 2.91162 2.46675 2.65522C2.72315 2.39883 2.86719 2.05108 2.86719 1.68848Z" fill="#7E84A3"/>
</svg>
