<svg width="40" height="40" viewBox="0 0 40 40" fill="none" xmlns="http://www.w3.org/2000/svg">
<circle cx="20" cy="20" r="19.5" fill="white" stroke="#E6E9F4"/>
<path d="M14.4903 9.613L16.213 9.10211C16.7816 8.93376 17.393 8.97461 17.9332 9.21703C18.4734 9.45944 18.9055 9.88687 19.1489 10.4196L20.3566 13.0615C20.5663 13.5199 20.6247 14.0313 20.5237 14.524C20.4228 15.0166 20.1675 15.4658 19.7937 15.8085L17.9553 17.4934C17.709 17.7235 17.8957 18.6202 18.7958 20.1546C19.6967 21.6899 20.3931 22.297 20.7142 22.2026L23.1226 21.4782C23.6108 21.3313 24.1335 21.3384 24.6174 21.4984C25.1013 21.6584 25.5221 21.9634 25.821 22.3705L27.5375 24.7107C27.8842 25.1832 28.0447 25.7635 27.9893 26.3437C27.9338 26.9239 27.6661 27.4646 27.236 27.8653L25.909 29.1014C25.4807 29.5004 24.9524 29.7805 24.378 29.9132C23.8036 30.0458 23.2038 30.0262 22.6397 29.8564C19.8595 29.0192 17.2847 26.5347 14.8807 22.4379C12.4714 18.335 11.5616 14.8742 12.1957 12.0468C12.3236 11.477 12.6037 10.9512 13.007 10.5234C13.4103 10.0956 13.9224 9.78132 14.4903 9.613Z" fill="#7E84A3"/>
</svg>
