<svg width="26" height="26" viewBox="0 0 26 26" fill="none" xmlns="http://www.w3.org/2000/svg">
<path fill-rule="evenodd" clip-rule="evenodd" d="M21 2H5C3.34315 2 2 3.34315 2 5V16.0858L3.58579 14.5C4.36684 13.719 5.63317 13.719 6.41421 14.5L9.5 17.5858L17.0858 10C17.8668 9.21895 19.1332 9.21895 19.9142 10L24 14.0858V5C24 3.34315 22.6569 2 21 2ZM24 16.9142L18.5 11.4142L10.9142 19C10.1332 19.781 8.86684 19.7811 8.08579 19L5 15.9142L2 18.9142V21C2 22.6569 3.34315 24 5 24H21C22.6569 24 24 22.6569 24 21V16.9142ZM5 0C2.23858 0 0 2.23858 0 5V21C0 23.7614 2.23858 26 5 26H21C23.7614 26 26 23.7614 26 21V5C26 2.23858 23.7614 0 21 0H5ZM9 8C9 9.10457 8.10457 10 7 10C5.89543 10 5 9.10457 5 8C5 6.89543 5.89543 6 7 6C8.10457 6 9 6.89543 9 8Z" fill="#7E84A3"/>
</svg>
