<svg width="24" height="24" viewBox="0 0 24 24" fill="none" xmlns="http://www.w3.org/2000/svg">
<path d="M21.7893 1.47978L22.3793 2.06978C23.1923 2.88378 23.0693 4.32678 22.1023 5.29278L9.9353 17.4598L5.9933 18.9018C5.4983 19.0838 5.0163 18.8478 4.9183 18.3768C4.88518 18.2059 4.90077 18.0292 4.9633 17.8668L6.4333 13.8908L18.5663 1.75678C19.5333 0.790781 20.9763 0.665781 21.7893 1.47978ZM9.4043 2.68978C9.53562 2.68978 9.66565 2.71565 9.78698 2.7659C9.90831 2.81616 10.0185 2.88982 10.1114 2.98267C10.2043 3.07553 10.2779 3.18577 10.3282 3.3071C10.3784 3.42842 10.4043 3.55846 10.4043 3.68978C10.4043 3.8211 10.3784 3.95114 10.3282 4.07246C10.2779 4.19379 10.2043 4.30403 10.1114 4.39689C10.0185 4.48975 9.90831 4.56341 9.78698 4.61366C9.66565 4.66392 9.53562 4.68978 9.4043 4.68978H5.4043C4.87386 4.68978 4.36516 4.90049 3.99008 5.27557C3.61501 5.65064 3.4043 6.15935 3.4043 6.68978V18.6898C3.4043 19.2202 3.61501 19.7289 3.99008 20.104C4.36516 20.4791 4.87386 20.6898 5.4043 20.6898H17.4043C17.9347 20.6898 18.4434 20.4791 18.8185 20.104C19.1936 19.7289 19.4043 19.2202 19.4043 18.6898V14.6898C19.4043 14.4246 19.5097 14.1702 19.6972 13.9827C19.8847 13.7951 20.1391 13.6898 20.4043 13.6898C20.6695 13.6898 20.9239 13.7951 21.1114 13.9827C21.2989 14.1702 21.4043 14.4246 21.4043 14.6898V18.6898C21.4043 19.7506 20.9829 20.7681 20.2327 21.5182C19.4826 22.2684 18.4652 22.6898 17.4043 22.6898H5.4043C4.34343 22.6898 3.32602 22.2684 2.57587 21.5182C1.82572 20.7681 1.4043 19.7506 1.4043 18.6898V6.68978C1.4043 5.62892 1.82572 4.6115 2.57587 3.86135C3.32602 3.11121 4.34343 2.68978 5.4043 2.68978H9.4043Z" fill="#494949"/>
</svg>
