<svg width="134" height="134" viewBox="0 0 134 134" fill="none" xmlns="http://www.w3.org/2000/svg">
<circle cx="67" cy="67" r="66.5" stroke="#D7DBEC"/>
<path d="M82.625 53.9375H77.2109L74.5488 49.9453C74.4062 49.7315 74.2131 49.5563 73.9865 49.435C73.7599 49.3137 73.507 49.2502 73.25 49.25H60.75C60.493 49.2502 60.2401 49.3137 60.0135 49.435C59.7869 49.5563 59.5938 49.7315 59.4512 49.9453L56.7871 53.9375H51.375C50.1318 53.9375 48.9395 54.4314 48.0604 55.3104C47.1814 56.1895 46.6875 57.3818 46.6875 58.625V80.5C46.6875 81.7432 47.1814 82.9355 48.0604 83.8146C48.9395 84.6936 50.1318 85.1875 51.375 85.1875H82.625C83.8682 85.1875 85.0605 84.6936 85.9396 83.8146C86.8186 82.9355 87.3125 81.7432 87.3125 80.5V58.625C87.3125 57.3818 86.8186 56.1895 85.9396 55.3104C85.0605 54.4314 83.8682 53.9375 82.625 53.9375ZM74.0312 68.7812C74.0312 70.1719 73.6189 71.5313 72.8463 72.6876C72.0737 73.8439 70.9755 74.7451 69.6907 75.2773C68.4059 75.8095 66.9922 75.9487 65.6283 75.6774C64.2643 75.4061 63.0115 74.7364 62.0282 73.7531C61.0448 72.7698 60.3752 71.5169 60.1039 70.153C59.8326 68.7891 59.9718 67.3753 60.504 66.0905C61.0361 64.8057 61.9374 63.7076 63.0936 62.935C64.2499 62.1624 65.6094 61.75 67 61.75C68.8648 61.75 70.6532 62.4908 71.9718 63.8094C73.2905 65.128 74.0312 66.9164 74.0312 68.7812Z" fill="#7E84A3"/>
</svg>
