<svg width="26" height="26" viewBox="0 0 26 26" fill="none" xmlns="http://www.w3.org/2000/svg">
<path fill-rule="evenodd" clip-rule="evenodd" d="M15.4122 16.6792C14.214 17.6145 12.7074 18.1716 11.0709 18.1716C7.16574 18.1716 4 14.9991 4 11.0858C4 7.17241 7.16574 4 11.0709 4C14.976 4 18.1418 7.17241 18.1418 11.0858C18.1418 12.6287 17.6497 14.0564 16.8142 15.2199L22.1515 20.7329C22.5357 21.1297 22.5261 21.7635 22.1301 22.1484L22.1141 22.164C21.7181 22.549 21.0857 22.5394 20.7015 22.1426L15.4122 16.6792ZM16.1208 11.0858C16.1208 13.881 13.8596 16.147 11.0702 16.147C8.28078 16.147 6.01953 13.881 6.01953 11.0858C6.01953 8.29052 8.28078 6.02451 11.0702 6.02451C13.8596 6.02451 16.1208 8.29052 16.1208 11.0858Z" fill="#AEAEAE"/>
</svg>
