<svg width="42" height="42" viewBox="0 0 42 42" fill="none" xmlns="http://www.w3.org/2000/svg">
<rect width="42" height="42" fill="#F5F5F5"/>
<rect id="&#236;&#153;&#132;&#236;&#132;&#177;&#235;&#179;&#184; bg" x="-3471" y="-5491" width="11515" height="14133" fill="#D9D9D9"/>
<g id="&#235;&#179;&#180;&#236;&#157;&#180;&#236;&#138;&#164;&#235;&#163;&#184; &#236;&#158;&#133;&#236;&#158;&#165;(&#236;&#136;&#152;&#236;&#160;&#149;" clip-path="url(#clip0_0_1)">
<rect width="1440" height="1024" transform="translate(-1348 -938)" fill="#F4F6FA"/>
<g id="Rectangle 442" filter="url(#filter0_di_0_1)">
<rect x="-393" y="-470" width="449" height="521" rx="15" fill="white"/>
</g>
<circle id="Ellipse 379" cx="21" cy="21" r="21" fill="#83A2FF"/>
<g id="&#236;&#160;&#132;&#236;&#134;&#161;">
<path id="Vector" d="M29.75 13.0281C29.7212 13.0908 29.6816 13.1478 29.633 13.1966L18.5698 24.2568L21.6942 29.465C21.7496 29.5577 21.8295 29.6332 21.9251 29.6832C22.0207 29.7333 22.1283 29.7559 22.2359 29.7487C22.3436 29.7414 22.4471 29.7045 22.5351 29.6421C22.6232 29.5796 22.6922 29.494 22.7346 29.3948L29.75 13.0281ZM17.7436 23.4306L12.535 20.304C12.4424 20.2487 12.3668 20.1688 12.3168 20.0732C12.2667 19.9776 12.2441 19.8701 12.2513 19.7624C12.2586 19.6547 12.2955 19.5512 12.3579 19.4632C12.4204 19.3752 12.506 19.3062 12.6052 19.2638L28.9765 12.25C28.9129 12.2789 28.8551 12.3189 28.8056 12.3682L17.7436 23.4306Z" fill="white"/>
</g>
</g>
<defs>
<filter id="filter0_di_0_1" x="-397" y="-471" width="457" height="529" filterUnits="userSpaceOnUse" color-interpolation-filters="sRGB">
<feFlood flood-opacity="0" result="BackgroundImageFix"/>
<feColorMatrix in="SourceAlpha" type="matrix" values="0 0 0 0 0 0 0 0 0 0 0 0 0 0 0 0 0 0 127 0" result="hardAlpha"/>
<feOffset dy="3"/>
<feGaussianBlur stdDeviation="2"/>
<feComposite in2="hardAlpha" operator="out"/>
<feColorMatrix type="matrix" values="0 0 0 0 0 0 0 0 0 0 0 0 0 0 0 0 0 0 0.08 0"/>
<feBlend mode="normal" in2="BackgroundImageFix" result="effect1_dropShadow_0_1"/>
<feBlend mode="normal" in="SourceGraphic" in2="effect1_dropShadow_0_1" result="shape"/>
<feColorMatrix in="SourceAlpha" type="matrix" values="0 0 0 0 0 0 0 0 0 0 0 0 0 0 0 0 0 0 127 0" result="hardAlpha"/>
<feOffset/>
<feGaussianBlur stdDeviation="6.55"/>
<feComposite in2="hardAlpha" operator="arithmetic" k2="-1" k3="1"/>
<feColorMatrix type="matrix" values="0 0 0 0 0 0 0 0 0 0 0 0 0 0 0 0 0 0 0.07 0"/>
<feBlend mode="normal" in2="shape" result="effect2_innerShadow_0_1"/>
</filter>
<clipPath id="clip0_0_1">
<rect width="1440" height="1024" fill="white" transform="translate(-1348 -938)"/>
</clipPath>
</defs>
</svg>
