<svg width="26" height="24" viewBox="0 0 26 24" fill="none" xmlns="http://www.w3.org/2000/svg">
<path fill-rule="evenodd" clip-rule="evenodd" d="M0.419503 10.6243C-0.116396 11.5525 -0.116397 12.6961 0.419501 13.6243L5.41032 22.2687C5.94621 23.1969 6.93659 23.7687 8.00839 23.7687H17.99C19.0618 23.7687 20.0522 23.1969 20.5881 22.2687L25.5789 13.6243C26.1148 12.6961 26.1148 11.5525 25.5789 10.6243L20.5881 1.97998C20.0522 1.05178 19.0618 0.47998 17.99 0.47998L8.00839 0.479981C6.93659 0.479981 5.94621 1.05178 5.41032 1.97998L0.419503 10.6243ZM12.9992 15.966C15.1209 15.966 16.8408 14.246 16.8408 12.1243C16.8408 10.0026 15.1209 8.28268 12.9992 8.28268C10.8775 8.28268 9.15757 10.0026 9.15757 12.1243C9.15757 14.246 10.8775 15.966 12.9992 15.966Z" fill="#E4E4E4"/>
</svg>
