<svg width="73" height="73" viewBox="0 0 73 73" fill="none" xmlns="http://www.w3.org/2000/svg">
<g filter="url(#filter0_d_1279_209)">
<circle cx="35.5" cy="35.5" r="32.5" fill="#83A2FF"/>
</g>
<g filter="url(#filter1_i_1279_209)">
<path fill-rule="evenodd" clip-rule="evenodd" d="M48.9622 37.429C49.9287 37.429 50.7122 36.6455 50.7122 35.679C50.7122 34.7125 49.9287 33.929 48.9622 33.929L37.3901 33.9289L37.39 22.3554C37.39 21.3889 36.6065 20.6054 35.64 20.6054C34.6735 20.6054 33.89 21.3889 33.89 22.3554L33.8901 33.9288L22.3167 33.9287C21.3502 33.9287 20.5667 34.7122 20.5667 35.6787C20.5667 36.6452 21.3502 37.4287 22.3167 37.4287L33.8902 37.4288L33.8903 49.0009C33.8903 49.9674 34.6738 50.7509 35.6403 50.7509C36.6068 50.7509 37.3903 49.9674 37.3903 49.0009L37.3902 37.4289L48.9622 37.429Z" fill="white"/>
</g>
<defs>
<filter id="filter0_d_1279_209" x="0" y="0" width="73" height="73" filterUnits="userSpaceOnUse" color-interpolation-filters="sRGB">
<feFlood flood-opacity="0" result="BackgroundImageFix"/>
<feColorMatrix in="SourceAlpha" type="matrix" values="0 0 0 0 0 0 0 0 0 0 0 0 0 0 0 0 0 0 127 0" result="hardAlpha"/>
<feOffset dx="1" dy="1"/>
<feGaussianBlur stdDeviation="2"/>
<feComposite in2="hardAlpha" operator="out"/>
<feColorMatrix type="matrix" values="0 0 0 0 0.411765 0 0 0 0 0.54902 0 0 0 0 0.968627 0 0 0 1 0"/>
<feBlend mode="normal" in2="BackgroundImageFix" result="effect1_dropShadow_1279_209"/>
<feBlend mode="normal" in="SourceGraphic" in2="effect1_dropShadow_1279_209" result="shape"/>
</filter>
<filter id="filter1_i_1279_209" x="20.5664" y="20.6055" width="30.1465" height="31.1455" filterUnits="userSpaceOnUse" color-interpolation-filters="sRGB">
<feFlood flood-opacity="0" result="BackgroundImageFix"/>
<feBlend mode="normal" in="SourceGraphic" in2="BackgroundImageFix" result="shape"/>
<feColorMatrix in="SourceAlpha" type="matrix" values="0 0 0 0 0 0 0 0 0 0 0 0 0 0 0 0 0 0 127 0" result="hardAlpha"/>
<feOffset dy="1"/>
<feGaussianBlur stdDeviation="1"/>
<feComposite in2="hardAlpha" operator="arithmetic" k2="-1" k3="1"/>
<feColorMatrix type="matrix" values="0 0 0 0 0 0 0 0 0 0 0 0 0 0 0 0 0 0 0.15 0"/>
<feBlend mode="normal" in2="shape" result="effect1_innerShadow_1279_209"/>
</filter>
</defs>
</svg>
