<svg width="32" height="32" viewBox="0 0 32 32" fill="none" xmlns="http://www.w3.org/2000/svg">
<path fill-rule="evenodd" clip-rule="evenodd" d="M16 28.9998C23.732 28.9998 30 22.9557 30 15.4999C30 8.04411 23.732 2 16 2C8.26801 2 2 8.04411 2 15.4999C2 18.1764 2.80777 20.671 4.20105 22.7694L3.14281 30L9.576 27.4978C11.5 28.4577 13.6843 28.9998 16 28.9998Z" fill="#E4E4E4"/>
<path fill-rule="evenodd" clip-rule="evenodd" d="M16.7496 8C15.645 8 14.7496 8.89543 14.7496 10V15C14.7496 16.1046 15.645 17 16.7496 17C17.8542 17 18.7496 16.1046 18.7496 15V10C18.7496 8.89543 17.8542 8 16.7496 8ZM12.5 14C12.5 13.5858 12.1642 13.25 11.75 13.25C11.3358 13.25 11 13.5858 11 14V15C11 17.9215 13.1787 20.3341 16 20.7016V23.25H13.75C13.3358 23.25 13 23.5858 13 24C13 24.4142 13.3358 24.75 13.75 24.75H16.75H19.75C20.1642 24.75 20.5 24.4142 20.5 24C20.5 23.5858 20.1642 23.25 19.75 23.25H17.5V20.7016C20.3213 20.3341 22.5 17.9215 22.5 15V14C22.5 13.5858 22.1642 13.25 21.75 13.25C21.3358 13.25 21 13.5858 21 14V15C21 17.3472 19.0972 19.25 16.75 19.25C14.4028 19.25 12.5 17.3472 12.5 15V14Z" fill="white"/>
</svg>
